<?xml version="1.0" encoding="UTF-8" standalone="no"?>
<svg
   width="1024"
   height="1024"
   version="1.1"
   id="svg6"
   sodipodi:docname="icon.svg"
   xml:space="preserve"
   inkscape:version="1.4 (86a8ad7, 2024-10-11)"
   xmlns:inkscape="http://www.inkscape.org/namespaces/inkscape"
   xmlns:sodipodi="http://sodipodi.sourceforge.net/DTD/sodipodi-0.dtd"
   xmlns="http://www.w3.org/2000/svg"
   xmlns:svg="http://www.w3.org/2000/svg"><defs
     id="defs6"><inkscape:path-effect
       effect="mirror_symmetry"
       start_point="512,0"
       end_point="512,1024"
       center_point="512,512"
       id="path-effect24"
       is_visible="true"
       lpeversion="1.2"
       lpesatellites=""
       mode="vertical"
       discard_orig_path="false"
       fuse_paths="false"
       oposite_fuse="false"
       split_items="false"
       split_open="false"
       link_styles="false" /><inkscape:path-effect
       effect="mirror_symmetry"
       start_point="499.30135,144.96615"
       end_point="499.30131,920.45095"
       center_point="499.30133,532.70855"
       id="path-effect23"
       is_visible="true"
       lpeversion="1.2"
       lpesatellites=""
       mode="vertical"
       discard_orig_path="false"
       fuse_paths="false"
       oposite_fuse="false"
       split_items="false"
       split_open="false"
       link_styles="false" /><inkscape:path-effect
       effect="mirror_symmetry"
       start_point="512,-199.94272"
       end_point="512,1130.5293"
       center_point="512,465.29328"
       id="path-effect21"
       is_visible="true"
       lpeversion="1.2"
       lpesatellites=""
       mode="vertical"
       discard_orig_path="false"
       fuse_paths="false"
       oposite_fuse="false"
       split_items="false"
       split_open="false"
       link_styles="false" /><inkscape:path-effect
       effect="mirror_symmetry"
       start_point="535.25689,-211.02961"
       end_point="535.25689,1119.4424"
       center_point="535.25689,454.20639"
       id="path-effect20"
       is_visible="true"
       lpeversion="1.2"
       lpesatellites=""
       mode="vertical"
       discard_orig_path="false"
       fuse_paths="false"
       oposite_fuse="false"
       split_items="false"
       split_open="false"
       link_styles="false" /><inkscape:path-effect
       effect="mirror_symmetry"
       start_point="496.8138,-15.714591"
       end_point="496.8138,1008.2854"
       center_point="496.8138,496.28541"
       id="path-effect16"
       is_visible="true"
       lpeversion="1.2"
       lpesatellites=""
       mode="vertical"
       discard_orig_path="false"
       fuse_paths="false"
       oposite_fuse="false"
       split_items="false"
       split_open="false"
       link_styles="false" /><inkscape:path-effect
       effect="mirror_symmetry"
       start_point="532.30236,-194.99673"
       end_point="532.30236,1135.4753"
       center_point="532.30236,470.23927"
       id="path-effect15"
       is_visible="true"
       lpeversion="1.2"
       lpesatellites=""
       mode="vertical"
       discard_orig_path="false"
       fuse_paths="false"
       oposite_fuse="false"
       split_items="false"
       split_open="false"
       link_styles="false" /><inkscape:path-effect
       effect="mirror_symmetry"
       start_point="514.4043,531.85156"
       end_point="514.4043,807.25742"
       center_point="514.4043,669.55449"
       id="path-effect14"
       is_visible="true"
       lpeversion="1.2"
       lpesatellites=""
       mode="free"
       discard_orig_path="false"
       fuse_paths="false"
       oposite_fuse="false"
       split_items="false"
       split_open="false"
       link_styles="false" /><inkscape:path-effect
       effect="slice"
       start_point="514.4043,531.85142"
       end_point="514.4043,807.26039"
       center_point="514.4043,669.5559"
       id="path-effect13"
       is_visible="true"
       lpeversion="1.2"
       lpesatellites=""
       allow_transforms="true" /><inkscape:path-effect
       effect="slice"
       start_point="903.64062,669.5559"
       end_point="125.16797,669.5559"
       center_point="514.4043,669.5559"
       id="path-effect12"
       is_visible="true"
       lpeversion="1.2"
       lpesatellites=""
       allow_transforms="true" /><inkscape:path-effect
       effect="mirror_symmetry"
       start_point="514.4043,76.746091"
       end_point="514.4043,826.58551"
       center_point="514.4043,451.6658"
       id="path-effect4"
       is_visible="true"
       lpeversion="1.2"
       lpesatellites=""
       mode="free"
       discard_orig_path="false"
       fuse_paths="false"
       oposite_fuse="false"
       split_items="false"
       split_open="false"
       link_styles="false" /><inkscape:path-effect
       effect="slice"
       start_point="514.4043,826.58551"
       end_point="514.4043,76.746094"
       center_point="514.4043,451.6658"
       id="path-effect3"
       is_visible="true"
       lpeversion="1.2"
       lpesatellites="#path3"
       allow_transforms="true" /><inkscape:path-effect
       effect="mirror_symmetry"
       start_point="514.4043,76.746094"
       end_point="514.4043,826.58551"
       center_point="514.4043,451.6658"
       id="path-effect2"
       is_visible="true"
       lpeversion="1.2"
       lpesatellites=""
       mode="X"
       discard_orig_path="false"
       fuse_paths="false"
       oposite_fuse="false"
       split_items="false"
       split_open="false"
       link_styles="false" /><inkscape:path-effect
       effect="mirror_symmetry"
       start_point="51.404297,451.6658"
       end_point="977.4043,451.6658"
       center_point="514.4043,451.6658"
       id="path-effect1"
       is_visible="true"
       lpeversion="1.2"
       lpesatellites=""
       mode="free"
       discard_orig_path="false"
       fuse_paths="false"
       oposite_fuse="false"
       split_items="false"
       split_open="false"
       link_styles="false" /></defs><sodipodi:namedview
     id="namedview6"
     pagecolor="#ffffff"
     bordercolor="#000000"
     borderopacity="0.25"
     inkscape:showpageshadow="2"
     inkscape:pageopacity="0.0"
     inkscape:pagecheckerboard="0"
     inkscape:deskcolor="#d1d1d1"
     showgrid="false"
     inkscape:zoom="0.39404297"
     inkscape:cx="187.79678"
     inkscape:cy="379.40025"
     inkscape:window-width="1920"
     inkscape:window-height="1009"
     inkscape:window-x="-8"
     inkscape:window-y="-8"
     inkscape:window-maximized="1"
     inkscape:current-layer="svg6" /><path
     style="display:inline;fill:#6a3333;fill-opacity:1;stroke:none;stroke-width:4.805;stroke-linecap:round;stroke-linejoin:round;stroke-dasharray:none;stroke-opacity:1;paint-order:stroke fill markers"
     d="M 903.63973,504.18707 889.15749,552.78452 701.06566,722.5909 515.30155,793.18931 318.17595,724.17702 141.56223,553.06891 118.97494,465.84894 350.85005,618.85856 697.89342,616.95521 Z"
     id="path17"
     inkscape:label="InnerMouth"
     transform="translate(5e-6,124.08072)"
     sodipodi:nodetypes="cccccccccc" /><path
     id="path3"
     d="m 514.4043,160.25586 c -16.33334,0 -32.66667,1.16666 -49,3.5 -13.02747,-29.96316 -27.99575,-58.95589 -44.8418,-87.009766 h -9.16602 c -39.77377,9.296079 -78.14386,22.522424 -114.99218,40.009766 0.66666,34 3.33333,68 8,102 -32,18 -61.33334,39.33333 -88,64 -26,-18 -53.33334,-33.66667 -82,-47 -32.00001,32.66667 -59.66667,68.66667 -83.000003,108 17.333333,28 58.840143,62.61338 78.840153,88.61338 -1.69186,65.29952 -25.32084,98.05342 -5.07559,195.89855 151.51967,123.91248 179.53681,179.25745 389.17936,197.80626 z m 0,0 c 16.33334,0 32.66667,1.16666 49,3.5 13.02747,-29.96316 27.99575,-58.95589 44.8418,-87.009766 h 9.16602 c 39.77377,9.296079 78.14386,22.522424 114.99218,40.009766 -0.66666,34 -3.33333,68 -8,102 32,18 61.33334,39.33333 88,64 26,-18 53.33334,-33.66667 82,-47 32.00001,32.66667 59.66667,68.66667 83,108 -17.33333,28 -58.84014,62.61338 -78.84015,88.61338 1.69186,65.29952 25.32084,98.05342 5.07559,195.89855 C 752.12007,752.18027 724.10293,807.52524 514.46038,826.07405 Z"
     style="display:inline;fill:#478cbf;fill-opacity:1;stroke:#478cbf;stroke-width:4.80506;stroke-linejoin:round;stroke-opacity:1;paint-order:stroke fill markers"
     sodipodi:nodetypes="ccccccccccccc"
     inkscape:original-d="m 514.4043,160.25586 c -16.33334,0 -32.66667,1.16666 -49,3.5 -13.02747,-29.96316 -27.99575,-58.95589 -44.8418,-87.009766 h -9.16602 c -39.77377,9.296079 -78.14386,22.522424 -114.99218,40.009766 0.66666,34 3.33333,68 8,102 -32,18 -61.33334,39.33333 -88,64 -26,-18 -53.33334,-33.66667 -82,-47 -32.00001,32.66667 -59.66667,68.66667 -83.000003,108 17.333333,28 58.840143,62.61338 78.840153,88.61338 -1.69186,65.29952 -25.32084,98.05342 -5.07559,195.89855 151.51967,123.91248 179.53681,179.25745 389.17936,197.80626 z"
     inkscape:path-effect="#path-effect4"
     inkscape:label="HeadTop" /><path
     style="display:inline;fill:#3475a5;fill-opacity:1;stroke:none;stroke-width:1;stroke-linecap:round;stroke-linejoin:miter;stroke-miterlimit:3.3;stroke-dasharray:none;stroke-opacity:1;paint-order:normal"
     d="m 328.77963,331.24592 c 58.36927,266.4684 81.83292,336.81294 81.83292,336.81294 0,0 12.92857,-61.74374 0.2396,-206.39801 C 398.16318,317.00657 328.77963,331.24592 328.77963,331.24592 Z m 366.44074,0 c -58.36927,266.4684 -81.83292,336.81294 -81.83292,336.81294 0,0 -12.92857,-61.74374 -0.2396,-206.39801 12.68897,-144.65428 82.07252,-130.41493 82.07252,-130.41493 z"
     id="path20"
     sodipodi:nodetypes="ccsc"
     inkscape:label="EyeShadow"
     inkscape:path-effect="#path-effect21"
     inkscape:original-d="m 328.77963,331.24592 c 58.36927,266.4684 81.83292,336.81294 81.83292,336.81294 0,0 12.92857,-61.74374 0.2396,-206.39801 C 398.16318,317.00657 328.77963,331.24592 328.77963,331.24592 Z"
     transform="matrix(1,0,0,0.76965167,0,153.88625)" /><path
     id="path3-4"
     style="display:inline;fill:#478cbf;fill-opacity:1;stroke:#478cbf;stroke-width:4.805;stroke-linecap:butt;stroke-linejoin:miter;stroke-miterlimit:3.6;stroke-dasharray:none;stroke-opacity:1;paint-order:stroke fill markers"
     d="m 514.4043,729.9668 v 0 c -140.11601,4.52499 -222.21965,-94.85902 -373.73932,-218.7715 5.29798,64.39415 69.48344,109.36107 92.18285,131.5516 87.71401,85.74759 123.28775,129.02415 281.10785,129.80554 z m 0,0 v 0 c 140.11601,4.52499 222.21965,-94.85902 373.73932,-218.7715 -5.29798,64.39415 -69.48344,109.36107 -92.18285,131.5516 -87.71401,85.74759 -123.28775,129.02415 -281.10785,129.80554 z"
     sodipodi:nodetypes="cccscc"
     transform="translate(0.89725078,165.95433)"
     inkscape:original-d="m 514.4043,729.9668 v 0 c -140.11601,4.52499 -222.21965,-94.85902 -373.73932,-218.7715 5.29798,64.39415 69.48344,109.36107 92.18285,131.5516 87.71401,85.74759 123.28775,129.02415 281.10785,129.80554 z"
     inkscape:path-effect="#path-effect14" /><path
     style="fill:#3475a5;fill-opacity:1;stroke:none;stroke-width:5;stroke-linecap:butt;stroke-linejoin:miter;stroke-miterlimit:3.6;stroke-dasharray:none;stroke-opacity:1;paint-order:normal"
     d="M 327.19351,435.79429 C 284.61594,447.08736 202.59569,539.6456 202.59569,539.6456 L 183.48676,425.74312 c 0,0 57.57468,-56.64597 108.11812,-51.59163 62.8072,6.28072 97.5219,66.60818 97.5219,66.60818 z m 369.61298,0 c 42.57757,11.29307 124.59782,103.85131 124.59782,103.85131 l 19.10893,-113.90248 c 0,0 -57.57468,-56.64597 -108.11812,-51.59163 -62.8072,6.28072 -97.5219,66.60818 -97.5219,66.60818 z"
     id="path23"
     sodipodi:nodetypes="cccscc"
     inkscape:path-effect="#path-effect24"
     inkscape:original-d="M 327.19351,435.79429 C 284.61594,447.08736 202.59569,539.6456 202.59569,539.6456 L 183.48676,425.74312 c 0,0 57.57468,-56.64597 108.11812,-51.59163 62.8072,6.28072 97.5219,66.60818 97.5219,66.60818 z" /><path
     style="display:inline;fill:#ffffff;fill-opacity:1;stroke:#ffffff;stroke-width:4.805;stroke-linecap:round;stroke-linejoin:round;stroke-dasharray:none;stroke-opacity:1;paint-order:stroke fill markers"
     d="m 328.77963,331.24592 c 0,0 67.61832,64.78348 62.67513,154.74169 -4.47901,81.5111 -38.30329,142.9158 -38.30329,142.9158 0,0 -110.40135,-24.9846 -125.17784,-127.6905 -20.60037,-143.18553 100.806,-169.96699 100.806,-169.96699 z m 407.04545,0 c 0,0 -67.61832,64.78348 -62.67513,154.74169 4.47901,81.5111 38.30329,142.9158 38.30329,142.9158 0,0 110.40135,-24.9846 125.17784,-127.6905 20.60037,-143.18553 -100.806,-169.96699 -100.806,-169.96699 z"
     id="path15"
     sodipodi:nodetypes="cscsc"
     inkscape:label="Eyes"
     transform="matrix(1,0,0,0.76965167,-20.302355,150.07956)"
     inkscape:original-d="m 328.77963,331.24592 c 0,0 67.61832,64.78348 62.67513,154.74169 -4.47901,81.5111 -38.30329,142.9158 -38.30329,142.9158 0,0 -110.40135,-24.9846 -125.17784,-127.6905 -20.60037,-143.18553 100.806,-169.96699 100.806,-169.96699 z"
     inkscape:path-effect="#path-effect15" /><path
     style="display:inline;fill:#3475a5;fill-opacity:1;stroke:none;stroke-width:4.805;stroke-linecap:round;stroke-linejoin:round;stroke-dasharray:none;stroke-opacity:1;paint-order:stroke fill markers"
     d="m 418.75474,664.90571 c -23.4746,10.15117 6.85664,68.24795 6.85664,68.24795 l 19.13707,-66.43479 z m 161.09317,10e-6 c 23.4746,10.15117 -6.85665,68.24795 -6.85665,68.24795 l -19.13706,-66.4348 z"
     id="path21"
     inkscape:path-effect="#path-effect23"
     inkscape:original-d="m 418.75474,664.90571 c -23.4746,10.15117 6.85664,68.24795 6.85664,68.24795 l 19.13707,-66.43479 z"
     inkscape:label="NostrilShadows"
     sodipodi:nodetypes="cccc"
     transform="matrix(1,0,4.3532802e-8,1.3204643,12.698647,-191.42262)" /><path
     style="display:inline;fill:#ffffff;fill-opacity:1;stroke:#ffffff;stroke-width:4.805;stroke-linecap:round;stroke-linejoin:round;stroke-dasharray:none;stroke-opacity:1;paint-order:stroke fill markers"
     d="m 418.75474,664.90574 c -23.4746,10.15117 5.06215,56.69655 5.06215,56.69655 l 20.93156,-54.88342 c -9.78613,2.19952 -12.20488,5.45279 -25.99371,-1.81313 z m 156.11812,0 c 23.4746,10.15117 -5.06215,56.69655 -5.06215,56.69655 l -20.93156,-54.88342 c 9.78613,2.19952 12.20488,5.45279 25.99371,-1.81313 z"
     id="path16"
     inkscape:path-effect="#path-effect16"
     inkscape:original-d="m 418.75474,664.90574 c -23.4746,10.15117 5.06215,56.69655 5.06215,56.69655 l 20.93156,-54.88342 c -9.78613,2.19952 -12.20488,5.45279 -25.99371,-1.81313 z"
     inkscape:label="Nostrils"
     sodipodi:nodetypes="cccc"
     transform="translate(15.1862,15.714591)" /><path
     style="display:inline;fill:#000000;fill-opacity:1;stroke:#000000;stroke-width:5;stroke-linecap:round;stroke-linejoin:round;stroke-miterlimit:1;stroke-dasharray:none;stroke-opacity:1;paint-order:normal"
     d="M 330.99253,595.80049 C 282.54126,565.49017 193.87712,433.90222 315.52988,328.05327 c -48.5321,112.48632 18.80355,236.03311 15.46265,267.74722 z m 408.52872,0 C 787.97252,565.49017 876.63666,433.90222 754.9839,328.05327 803.516,440.53959 736.18035,564.08638 739.52125,595.80049 Z"
     id="path18"
     sodipodi:nodetypes="ccc"
     inkscape:path-effect="#path-effect20"
     inkscape:original-d="M 330.99253,595.80049 C 282.54126,565.49017 193.87712,433.90222 315.52988,328.05327 c -48.5321,112.48632 18.80355,236.03311 15.46265,267.74722 z"
     transform="matrix(1,0,0,0.76965167,-23.256889,162.41929)" /><path
     style="display:inline;fill:#ff6b6a;fill-opacity:1;stroke:#ff6b6a;stroke-width:4.805;stroke-linecap:round;stroke-linejoin:round;stroke-dasharray:none;stroke-opacity:1;paint-order:stroke fill markers"
     d="M 377.74893,678.14219 C 248.19388,607.50563 208.88137,574.98303 177.88457,548.4339 c -96.333339,-82.51065 55.62271,-65.40667 57.9797,-167.8421 1.52579,-66.31098 -32.4916,-82.13008 -53.68853,-89.76711 16.40736,41.30058 13.34825,49.76706 14.46711,89.25719 1.16891,41.25674 -32.14513,45.64477 -57.74914,67.28808 -28.00152,23.66994 -22.38598,66.9053 2.66852,105.69895 87.59498,87.38679 175.34408,180.07526 236.1867,125.07328 z"
     id="path14"
     sodipodi:nodetypes="csscsscc"
     inkscape:label="Tongue"
     transform="translate(5e-6,124.08072)" /></svg>
