<?xml version="1.0" encoding="UTF-8" standalone="no"?>
<svg
   width="4096"
   height="2048"
   version="1.1"
   id="svg6"
   sodipodi:docname="geqo-logo.svg"
   xml:space="preserve"
   inkscape:version="1.4 (86a8ad7, 2024-10-11)"
   inkscape:export-filename="C:\Users\marre\Downloads\geqo-logo.png"
   inkscape:export-xdpi="46.875"
   inkscape:export-ydpi="46.875"
   xmlns:inkscape="http://www.inkscape.org/namespaces/inkscape"
   xmlns:sodipodi="http://sodipodi.sourceforge.net/DTD/sodipodi-0.dtd"
   xmlns="http://www.w3.org/2000/svg"
   xmlns:svg="http://www.w3.org/2000/svg"><defs
     id="defs6"><inkscape:path-effect
       effect="bend_path"
       id="path-effect5"
       is_visible="true"
       lpeversion="1"
       bendpath="m 960.78407,1488.1019 c 980.97543,109.708 993.54123,108.5964 1955.07693,0"
       prop_scale="1"
       scale_y_rel="false"
       vertical="false"
       hide_knot="false"
       bendpath-nodetypes="cc" /><inkscape:path-effect
       effect="mirror_symmetry"
       start_point="512,0"
       end_point="512,1024"
       center_point="512,512"
       id="path-effect24"
       is_visible="true"
       lpeversion="1.2"
       lpesatellites=""
       mode="vertical"
       discard_orig_path="false"
       fuse_paths="false"
       oposite_fuse="false"
       split_items="false"
       split_open="false"
       link_styles="false" /><inkscape:path-effect
       effect="mirror_symmetry"
       start_point="499.30135,144.96615"
       end_point="499.30131,920.45095"
       center_point="499.30133,532.70855"
       id="path-effect23"
       is_visible="true"
       lpeversion="1.2"
       lpesatellites=""
       mode="vertical"
       discard_orig_path="false"
       fuse_paths="false"
       oposite_fuse="false"
       split_items="false"
       split_open="false"
       link_styles="false" /><inkscape:path-effect
       effect="mirror_symmetry"
       start_point="512,-199.94272"
       end_point="512,1130.5293"
       center_point="512,465.29328"
       id="path-effect21"
       is_visible="true"
       lpeversion="1.2"
       lpesatellites=""
       mode="vertical"
       discard_orig_path="false"
       fuse_paths="false"
       oposite_fuse="false"
       split_items="false"
       split_open="false"
       link_styles="false" /><inkscape:path-effect
       effect="mirror_symmetry"
       start_point="535.25689,-211.02961"
       end_point="535.25689,1119.4424"
       center_point="535.25689,454.20639"
       id="path-effect20"
       is_visible="true"
       lpeversion="1.2"
       lpesatellites=""
       mode="vertical"
       discard_orig_path="false"
       fuse_paths="false"
       oposite_fuse="false"
       split_items="false"
       split_open="false"
       link_styles="false" /><inkscape:path-effect
       effect="mirror_symmetry"
       start_point="496.8138,-15.714591"
       end_point="496.8138,1008.2854"
       center_point="496.8138,496.28541"
       id="path-effect16"
       is_visible="true"
       lpeversion="1.2"
       lpesatellites=""
       mode="vertical"
       discard_orig_path="false"
       fuse_paths="false"
       oposite_fuse="false"
       split_items="false"
       split_open="false"
       link_styles="false" /><inkscape:path-effect
       effect="mirror_symmetry"
       start_point="532.30236,-194.99673"
       end_point="532.30236,1135.4753"
       center_point="532.30236,470.23927"
       id="path-effect15"
       is_visible="true"
       lpeversion="1.2"
       lpesatellites=""
       mode="vertical"
       discard_orig_path="false"
       fuse_paths="false"
       oposite_fuse="false"
       split_items="false"
       split_open="false"
       link_styles="false" /><inkscape:path-effect
       effect="mirror_symmetry"
       start_point="514.4043,531.85156"
       end_point="514.4043,807.25742"
       center_point="514.4043,669.55449"
       id="path-effect14"
       is_visible="true"
       lpeversion="1.2"
       lpesatellites=""
       mode="free"
       discard_orig_path="false"
       fuse_paths="false"
       oposite_fuse="false"
       split_items="false"
       split_open="false"
       link_styles="false" /><inkscape:path-effect
       effect="slice"
       start_point="514.4043,531.85142"
       end_point="514.4043,807.26039"
       center_point="514.4043,669.5559"
       id="path-effect13"
       is_visible="true"
       lpeversion="1.2"
       lpesatellites=""
       allow_transforms="true" /><inkscape:path-effect
       effect="slice"
       start_point="903.64062,669.5559"
       end_point="125.16797,669.5559"
       center_point="514.4043,669.5559"
       id="path-effect12"
       is_visible="true"
       lpeversion="1.2"
       lpesatellites=""
       allow_transforms="true" /><inkscape:path-effect
       effect="mirror_symmetry"
       start_point="514.4043,76.746091"
       end_point="514.4043,826.58551"
       center_point="514.4043,451.6658"
       id="path-effect4"
       is_visible="true"
       lpeversion="1.2"
       lpesatellites=""
       mode="free"
       discard_orig_path="false"
       fuse_paths="false"
       oposite_fuse="false"
       split_items="false"
       split_open="false"
       link_styles="false" /><inkscape:path-effect
       effect="slice"
       start_point="514.4043,826.58551"
       end_point="514.4043,76.746094"
       center_point="514.4043,451.6658"
       id="path-effect3"
       is_visible="true"
       lpeversion="1.2"
       lpesatellites="#path3"
       allow_transforms="true" /><inkscape:path-effect
       effect="mirror_symmetry"
       start_point="514.4043,76.746094"
       end_point="514.4043,826.58551"
       center_point="514.4043,451.6658"
       id="path-effect2"
       is_visible="true"
       lpeversion="1.2"
       lpesatellites=""
       mode="X"
       discard_orig_path="false"
       fuse_paths="false"
       oposite_fuse="false"
       split_items="false"
       split_open="false"
       link_styles="false" /><inkscape:path-effect
       effect="mirror_symmetry"
       start_point="51.404297,451.6658"
       end_point="977.4043,451.6658"
       center_point="514.4043,451.6658"
       id="path-effect1"
       is_visible="true"
       lpeversion="1.2"
       lpesatellites=""
       mode="free"
       discard_orig_path="false"
       fuse_paths="false"
       oposite_fuse="false"
       split_items="false"
       split_open="false"
       link_styles="false" /></defs><sodipodi:namedview
     id="namedview6"
     pagecolor="#ffffff"
     bordercolor="#000000"
     borderopacity="0.25"
     inkscape:showpageshadow="2"
     inkscape:pageopacity="0.0"
     inkscape:pagecheckerboard="0"
     inkscape:deskcolor="#d1d1d1"
     showgrid="false"
     inkscape:zoom="0.19702149"
     inkscape:cx="1479.534"
     inkscape:cy="378.13134"
     inkscape:window-width="1920"
     inkscape:window-height="1009"
     inkscape:window-x="-8"
     inkscape:window-y="-8"
     inkscape:window-maximized="1"
     inkscape:current-layer="text1" /><g
     id="g12"
     transform="matrix(1.4576695,0,0,1.4576695,1283.6393,-57.572701)"
     style="display:inline;fill:#ffffff;fill-opacity:1;stroke:#ffffff;stroke-opacity:1"><path
       style="display:inline;fill:#ffffff;fill-opacity:1;stroke:#ffffff;stroke-width:4.805;stroke-linecap:round;stroke-linejoin:round;stroke-dasharray:none;stroke-opacity:1;paint-order:stroke fill markers"
       d="M 903.63973,504.18707 889.15749,552.78452 701.06566,722.5909 515.30155,793.18931 318.17595,724.17702 141.56223,553.06891 118.97494,465.84894 350.85005,618.85856 697.89342,616.95521 Z"
       id="path2"
       inkscape:label="InnerMouth"
       sodipodi:nodetypes="cccccccccc"
       transform="translate(5e-6,124.08072)" /><path
       id="path4"
       d="m 514.4043,160.25586 c -16.33334,0 -32.66667,1.16666 -49,3.5 -13.02747,-29.96316 -27.99575,-58.95589 -44.8418,-87.009766 h -9.16602 c -39.77377,9.296079 -78.14386,22.522424 -114.99218,40.009766 0.66666,34 3.33333,68 8,102 -32,18 -61.33334,39.33333 -88,64 -26,-18 -53.33334,-33.66667 -82,-47 -32.00001,32.66667 -59.66667,68.66667 -83.000003,108 17.333333,28 58.840143,62.61338 78.840153,88.61338 -1.69186,65.29952 -25.32084,98.05342 -5.07559,195.89855 151.51967,123.91248 179.53681,179.25745 389.17936,197.80626 z m 0,0 c 16.33334,0 32.66667,1.16666 49,3.5 13.02747,-29.96316 27.99575,-58.95589 44.8418,-87.009766 h 9.16602 c 39.77377,9.296079 78.14386,22.522424 114.99218,40.009766 -0.66666,34 -3.33333,68 -8,102 32,18 61.33334,39.33333 88,64 26,-18 53.33334,-33.66667 82,-47 32.00001,32.66667 59.66667,68.66667 83,108 -17.33333,28 -58.84014,62.61338 -78.84015,88.61338 1.69186,65.29952 25.32084,98.05342 5.07559,195.89855 C 752.12007,752.18027 724.10293,807.52524 514.46038,826.07405 Z"
       style="display:inline;fill:#ffffff;fill-opacity:1;stroke:#ffffff;stroke-width:4.80506;stroke-linejoin:round;stroke-opacity:1;paint-order:stroke fill markers"
       sodipodi:nodetypes="ccccccccccccc"
       inkscape:label="HeadTop" /><path
       style="display:inline;fill:#ffffff;fill-opacity:1;stroke:#ffffff;stroke-width:1;stroke-linecap:round;stroke-linejoin:miter;stroke-miterlimit:3.3;stroke-dasharray:none;stroke-opacity:1;paint-order:normal"
       d="m 328.77963,331.24592 c 58.36927,266.4684 81.83292,336.81294 81.83292,336.81294 0,0 12.92857,-61.74374 0.2396,-206.39801 C 398.16318,317.00657 328.77963,331.24592 328.77963,331.24592 Z m 366.44074,0 c -58.36927,266.4684 -81.83292,336.81294 -81.83292,336.81294 0,0 -12.92857,-61.74374 -0.2396,-206.39801 12.68897,-144.65428 82.07252,-130.41493 82.07252,-130.41493 z"
       id="path5"
       sodipodi:nodetypes="ccsc"
       inkscape:label="EyeShadow"
       transform="matrix(1,0,0,0.76965167,0,153.88625)" /><path
       id="path6"
       style="display:inline;fill:#ffffff;fill-opacity:1;stroke:#ffffff;stroke-width:4.805;stroke-linecap:butt;stroke-linejoin:miter;stroke-miterlimit:3.6;stroke-dasharray:none;stroke-opacity:1;paint-order:stroke fill markers"
       d="m 514.4043,729.9668 v 0 c -140.11601,4.52499 -222.21965,-94.85902 -373.73932,-218.7715 5.29798,64.39415 69.48344,109.36107 92.18285,131.5516 87.71401,85.74759 123.28775,129.02415 281.10785,129.80554 z m 0,0 v 0 c 140.11601,4.52499 222.21965,-94.85902 373.73932,-218.7715 -5.29798,64.39415 -69.48344,109.36107 -92.18285,131.5516 -87.71401,85.74759 -123.28775,129.02415 -281.10785,129.80554 z"
       sodipodi:nodetypes="cccscc"
       transform="translate(0.89725078,165.95433)" /><path
       style="fill:#ffffff;fill-opacity:1;stroke:#ffffff;stroke-width:5;stroke-linecap:butt;stroke-linejoin:miter;stroke-miterlimit:3.6;stroke-dasharray:none;stroke-opacity:1;paint-order:normal"
       d="M 327.19351,435.79429 C 284.61594,447.08736 202.59569,539.6456 202.59569,539.6456 L 183.48676,425.74312 c 0,0 57.57468,-56.64597 108.11812,-51.59163 62.8072,6.28072 97.5219,66.60818 97.5219,66.60818 z m 369.61298,0 c 42.57757,11.29307 124.59782,103.85131 124.59782,103.85131 l 19.10893,-113.90248 c 0,0 -57.57468,-56.64597 -108.11812,-51.59163 -62.8072,6.28072 -97.5219,66.60818 -97.5219,66.60818 z"
       id="path7"
       sodipodi:nodetypes="cccscc" /><path
       style="display:inline;fill:#ffffff;fill-opacity:1;stroke:#ffffff;stroke-width:4.805;stroke-linecap:round;stroke-linejoin:round;stroke-dasharray:none;stroke-opacity:1;paint-order:stroke fill markers"
       d="m 328.77963,331.24592 c 0,0 67.61832,64.78348 62.67513,154.74169 -4.47901,81.5111 -38.30329,142.9158 -38.30329,142.9158 0,0 -110.40135,-24.9846 -125.17784,-127.6905 -20.60037,-143.18553 100.806,-169.96699 100.806,-169.96699 z m 407.04545,0 c 0,0 -67.61832,64.78348 -62.67513,154.74169 4.47901,81.5111 38.30329,142.9158 38.30329,142.9158 0,0 110.40135,-24.9846 125.17784,-127.6905 20.60037,-143.18553 -100.806,-169.96699 -100.806,-169.96699 z"
       id="path8"
       sodipodi:nodetypes="cscsc"
       inkscape:label="Eyes"
       transform="matrix(1,0,0,0.76965167,-20.302355,150.07956)" /><path
       style="display:inline;fill:#ffffff;fill-opacity:1;stroke:#ffffff;stroke-width:4.805;stroke-linecap:round;stroke-linejoin:round;stroke-dasharray:none;stroke-opacity:1;paint-order:stroke fill markers"
       d="m 418.75474,664.90571 c -23.4746,10.15117 6.85664,68.24795 6.85664,68.24795 l 19.13707,-66.43479 z m 161.09317,10e-6 c 23.4746,10.15117 -6.85665,68.24795 -6.85665,68.24795 l -19.13706,-66.4348 z"
       id="path9"
       inkscape:label="NostrilShadows"
       sodipodi:nodetypes="cccc"
       transform="matrix(1,0,4.3532802e-8,1.3204643,12.698647,-191.42262)" /><path
       style="display:inline;fill:#ffffff;fill-opacity:1;stroke:#ffffff;stroke-width:4.805;stroke-linecap:round;stroke-linejoin:round;stroke-dasharray:none;stroke-opacity:1;paint-order:stroke fill markers"
       d="m 418.75474,664.90574 c -23.4746,10.15117 5.06215,56.69655 5.06215,56.69655 l 20.93156,-54.88342 c -9.78613,2.19952 -12.20488,5.45279 -25.99371,-1.81313 z m 156.11812,0 c 23.4746,10.15117 -5.06215,56.69655 -5.06215,56.69655 l -20.93156,-54.88342 c 9.78613,2.19952 12.20488,5.45279 25.99371,-1.81313 z"
       id="path10"
       inkscape:label="Nostrils"
       sodipodi:nodetypes="cccc"
       transform="translate(15.1862,15.714591)" /><path
       style="display:inline;fill:#ffffff;fill-opacity:1;stroke:#ffffff;stroke-width:5;stroke-linecap:round;stroke-linejoin:round;stroke-miterlimit:1;stroke-dasharray:none;stroke-opacity:1;paint-order:normal"
       d="M 330.99253,595.80049 C 282.54126,565.49017 193.87712,433.90222 315.52988,328.05327 c -48.5321,112.48632 18.80355,236.03311 15.46265,267.74722 z m 408.52872,0 C 787.97252,565.49017 876.63666,433.90222 754.9839,328.05327 803.516,440.53959 736.18035,564.08638 739.52125,595.80049 Z"
       id="path11"
       sodipodi:nodetypes="ccc"
       transform="matrix(1,0,0,0.76965167,-23.256889,162.41929)" /><path
       style="display:inline;fill:#ffffff;fill-opacity:1;stroke:#ffffff;stroke-width:4.805;stroke-linecap:round;stroke-linejoin:round;stroke-dasharray:none;stroke-opacity:1;paint-order:stroke fill markers"
       d="M 377.74893,678.14219 C 248.19388,607.50563 208.88137,574.98303 177.88457,548.4339 c -96.333339,-82.51065 55.62271,-65.40667 57.9797,-167.8421 1.52579,-66.31098 -32.4916,-82.13008 -53.68853,-89.76711 16.40736,41.30058 13.34825,49.76706 14.46711,89.25719 1.16891,41.25674 -32.14513,45.64477 -57.74914,67.28808 -28.00152,23.66994 -22.38598,66.9053 2.66852,105.69895 87.59498,87.38679 175.34408,180.07526 236.1867,125.07328 z"
       id="path12"
       sodipodi:nodetypes="csscsscc"
       inkscape:label="Tongue"
       transform="translate(5e-6,124.08072)" /></g><g
     id="g1"
     transform="matrix(1.325262,0,0,1.325262,1351.7503,9.6416288)"
     style="display:inline"><path
       style="display:inline;fill:#6a3333;fill-opacity:1;stroke:none;stroke-width:4.805;stroke-linecap:round;stroke-linejoin:round;stroke-dasharray:none;stroke-opacity:1;paint-order:stroke fill markers"
       d="M 903.63973,504.18707 889.15749,552.78452 701.06566,722.5909 515.30155,793.18931 318.17595,724.17702 141.56223,553.06891 118.97494,465.84894 350.85005,618.85856 697.89342,616.95521 Z"
       id="path17"
       inkscape:label="InnerMouth"
       sodipodi:nodetypes="cccccccccc"
       transform="translate(5e-6,124.08072)" /><path
       id="path3"
       d="m 514.4043,160.25586 c -16.33334,0 -32.66667,1.16666 -49,3.5 -13.02747,-29.96316 -27.99575,-58.95589 -44.8418,-87.009766 h -9.16602 c -39.77377,9.296079 -78.14386,22.522424 -114.99218,40.009766 0.66666,34 3.33333,68 8,102 -32,18 -61.33334,39.33333 -88,64 -26,-18 -53.33334,-33.66667 -82,-47 -32.00001,32.66667 -59.66667,68.66667 -83.000003,108 17.333333,28 58.840143,62.61338 78.840153,88.61338 -1.69186,65.29952 -25.32084,98.05342 -5.07559,195.89855 151.51967,123.91248 179.53681,179.25745 389.17936,197.80626 z m 0,0 c 16.33334,0 32.66667,1.16666 49,3.5 13.02747,-29.96316 27.99575,-58.95589 44.8418,-87.009766 h 9.16602 c 39.77377,9.296079 78.14386,22.522424 114.99218,40.009766 -0.66666,34 -3.33333,68 -8,102 32,18 61.33334,39.33333 88,64 26,-18 53.33334,-33.66667 82,-47 32.00001,32.66667 59.66667,68.66667 83,108 -17.33333,28 -58.84014,62.61338 -78.84015,88.61338 1.69186,65.29952 25.32084,98.05342 5.07559,195.89855 C 752.12007,752.18027 724.10293,807.52524 514.46038,826.07405 Z"
       style="display:inline;fill:#478cbf;fill-opacity:1;stroke:#478cbf;stroke-width:4.80506;stroke-linejoin:round;stroke-opacity:1;paint-order:stroke fill markers"
       sodipodi:nodetypes="ccccccccccccc"
       inkscape:label="HeadTop" /><path
       style="display:inline;fill:#3475a5;fill-opacity:1;stroke:none;stroke-width:1;stroke-linecap:round;stroke-linejoin:miter;stroke-miterlimit:3.3;stroke-dasharray:none;stroke-opacity:1;paint-order:normal"
       d="m 328.77963,331.24592 c 58.36927,266.4684 81.83292,336.81294 81.83292,336.81294 0,0 12.92857,-61.74374 0.2396,-206.39801 C 398.16318,317.00657 328.77963,331.24592 328.77963,331.24592 Z m 366.44074,0 c -58.36927,266.4684 -81.83292,336.81294 -81.83292,336.81294 0,0 -12.92857,-61.74374 -0.2396,-206.39801 12.68897,-144.65428 82.07252,-130.41493 82.07252,-130.41493 z"
       id="path20"
       sodipodi:nodetypes="ccsc"
       inkscape:label="EyeShadow"
       transform="matrix(1,0,0,0.76965167,0,153.88625)" /><path
       id="path3-4"
       style="display:inline;fill:#478cbf;fill-opacity:1;stroke:#478cbf;stroke-width:4.805;stroke-linecap:butt;stroke-linejoin:miter;stroke-miterlimit:3.6;stroke-dasharray:none;stroke-opacity:1;paint-order:stroke fill markers"
       d="m 514.4043,729.9668 v 0 c -140.11601,4.52499 -222.21965,-94.85902 -373.73932,-218.7715 5.29798,64.39415 69.48344,109.36107 92.18285,131.5516 87.71401,85.74759 123.28775,129.02415 281.10785,129.80554 z m 0,0 v 0 c 140.11601,4.52499 222.21965,-94.85902 373.73932,-218.7715 -5.29798,64.39415 -69.48344,109.36107 -92.18285,131.5516 -87.71401,85.74759 -123.28775,129.02415 -281.10785,129.80554 z"
       sodipodi:nodetypes="cccscc"
       transform="translate(0.89725078,165.95433)" /><path
       style="fill:#3475a5;fill-opacity:1;stroke:none;stroke-width:5;stroke-linecap:butt;stroke-linejoin:miter;stroke-miterlimit:3.6;stroke-dasharray:none;stroke-opacity:1;paint-order:normal"
       d="M 327.19351,435.79429 C 284.61594,447.08736 202.59569,539.6456 202.59569,539.6456 L 183.48676,425.74312 c 0,0 57.57468,-56.64597 108.11812,-51.59163 62.8072,6.28072 97.5219,66.60818 97.5219,66.60818 z m 369.61298,0 c 42.57757,11.29307 124.59782,103.85131 124.59782,103.85131 l 19.10893,-113.90248 c 0,0 -57.57468,-56.64597 -108.11812,-51.59163 -62.8072,6.28072 -97.5219,66.60818 -97.5219,66.60818 z"
       id="path23"
       sodipodi:nodetypes="cccscc" /><path
       style="display:inline;fill:#ffffff;fill-opacity:1;stroke:#ffffff;stroke-width:4.805;stroke-linecap:round;stroke-linejoin:round;stroke-dasharray:none;stroke-opacity:1;paint-order:stroke fill markers"
       d="m 328.77963,331.24592 c 0,0 67.61832,64.78348 62.67513,154.74169 -4.47901,81.5111 -38.30329,142.9158 -38.30329,142.9158 0,0 -110.40135,-24.9846 -125.17784,-127.6905 -20.60037,-143.18553 100.806,-169.96699 100.806,-169.96699 z m 407.04545,0 c 0,0 -67.61832,64.78348 -62.67513,154.74169 4.47901,81.5111 38.30329,142.9158 38.30329,142.9158 0,0 110.40135,-24.9846 125.17784,-127.6905 20.60037,-143.18553 -100.806,-169.96699 -100.806,-169.96699 z"
       id="path15"
       sodipodi:nodetypes="cscsc"
       inkscape:label="Eyes"
       transform="matrix(1,0,0,0.76965167,-20.302355,150.07956)" /><path
       style="display:inline;fill:#3475a5;fill-opacity:1;stroke:none;stroke-width:4.805;stroke-linecap:round;stroke-linejoin:round;stroke-dasharray:none;stroke-opacity:1;paint-order:stroke fill markers"
       d="m 418.75474,664.90571 c -23.4746,10.15117 6.85664,68.24795 6.85664,68.24795 l 19.13707,-66.43479 z m 161.09317,10e-6 c 23.4746,10.15117 -6.85665,68.24795 -6.85665,68.24795 l -19.13706,-66.4348 z"
       id="path21"
       inkscape:label="NostrilShadows"
       sodipodi:nodetypes="cccc"
       transform="matrix(1,0,4.3532802e-8,1.3204643,12.698647,-191.42262)" /><path
       style="display:inline;fill:#ffffff;fill-opacity:1;stroke:#ffffff;stroke-width:4.805;stroke-linecap:round;stroke-linejoin:round;stroke-dasharray:none;stroke-opacity:1;paint-order:stroke fill markers"
       d="m 418.75474,664.90574 c -23.4746,10.15117 5.06215,56.69655 5.06215,56.69655 l 20.93156,-54.88342 c -9.78613,2.19952 -12.20488,5.45279 -25.99371,-1.81313 z m 156.11812,0 c 23.4746,10.15117 -5.06215,56.69655 -5.06215,56.69655 l -20.93156,-54.88342 c 9.78613,2.19952 12.20488,5.45279 25.99371,-1.81313 z"
       id="path16"
       inkscape:label="Nostrils"
       sodipodi:nodetypes="cccc"
       transform="translate(15.1862,15.714591)" /><path
       style="display:inline;fill:#000000;fill-opacity:1;stroke:#000000;stroke-width:5;stroke-linecap:round;stroke-linejoin:round;stroke-miterlimit:1;stroke-dasharray:none;stroke-opacity:1;paint-order:normal"
       d="M 330.99253,595.80049 C 282.54126,565.49017 193.87712,433.90222 315.52988,328.05327 c -48.5321,112.48632 18.80355,236.03311 15.46265,267.74722 z m 408.52872,0 C 787.97252,565.49017 876.63666,433.90222 754.9839,328.05327 803.516,440.53959 736.18035,564.08638 739.52125,595.80049 Z"
       id="path18"
       sodipodi:nodetypes="ccc"
       transform="matrix(1,0,0,0.76965167,-23.256889,162.41929)" /><path
       style="display:inline;fill:#ff6b6a;fill-opacity:1;stroke:#ff6b6a;stroke-width:4.805;stroke-linecap:round;stroke-linejoin:round;stroke-dasharray:none;stroke-opacity:1;paint-order:stroke fill markers"
       d="M 377.74893,678.14219 C 248.19388,607.50563 208.88137,574.98303 177.88457,548.4339 c -96.333339,-82.51065 55.62271,-65.40667 57.9797,-167.8421 1.52579,-66.31098 -32.4916,-82.13008 -53.68853,-89.76711 16.40736,41.30058 13.34825,49.76706 14.46711,89.25719 1.16891,41.25674 -32.14513,45.64477 -57.74914,67.28808 -28.00152,23.66994 -22.38598,66.9053 2.66852,105.69895 87.59498,87.38679 175.34408,180.07526 236.1867,125.07328 z"
       id="path14"
       sodipodi:nodetypes="csscsscc"
       inkscape:label="Tongue"
       transform="translate(5e-6,124.08072)" /></g><g
     id="text1"
     style="font-size:200px;font-family:'Showcard Gothic';-inkscape-font-specification:'Showcard Gothic';text-align:center;text-anchor:middle;fill:#ffffff;stroke:#000000;stroke-width:10;stroke-miterlimit:3.6"
     aria-label="Godot Environment&#10;Query Orchestrator"><path
       d="m 1133.2051,1463.592 q -0.9766,8.3008 -2.9297,31.3477 -0.9766,13.7695 -1.8555,32.6172 -13.0859,3.8086 -38.1836,3.8086 -37.3047,0 -60.6445,-16.7969 -27.5391,-20.0195 -27.5391,-59.5703 0,-37.8906 24.1211,-59.1797 22.6563,-20.0195 59.668,-20.0195 13.9648,0 29.9805,2.1484 l 5.3711,61.6211 q -6.4454,-2.4414 -18.3594,-2.4414 -15.1367,0 -27.3438,9.2773 -13.6718,10.4493 -13.6718,26.5625 0,15.2344 11.6211,23.5352 9.7656,7.0312 22.5585,6.6406 l -1.5625,-19.6289 q -0.5859,-6.0547 -2.6367,-19.9219 z m 136.0351,-14.0625 q 0,34.4727 -17.7734,58.3008 -18.6523,24.9024 -47.7539,24.9024 -29.9805,0 -48.5352,-25.0977 -17.4804,-23.6328 -17.4804,-58.1055 0,-36.8164 19.0429,-57.8125 17.9688,-19.7265 46.9727,-19.7265 28.5156,0 46.4844,19.8242 19.0429,21.0937 19.0429,57.7148 z m -46.9726,17.1875 q 0,-27.1484 -18.3594,-27.1484 -17.8711,0 -17.8711,27.3438 0,10.9375 4.6875,20.4101 5.2734,10.6445 12.9883,10.6445 7.5195,0 13.2812,-10.8398 5.2735,-9.8633 5.2735,-20.4102 z m 187.7929,-12.7929 q 0,35.2539 -21.875,55.4687 -22.5585,20.9961 -63.5742,20.9961 -26.3672,0 -40.7226,-2.6367 l -2.6367,-72.5586 q -1.2696,-27.9297 -4.5899,-77.0508 21.1914,-3.0273 44.2383,-3.0273 41.1133,0 64.3555,19.1406 24.8046,20.5078 24.8046,59.668 z m -40.039,12.0117 q 0,-14.3555 -9.2774,-21.1914 -7.7148,-5.6641 -19.7265,-5.1758 l -1.3672,61.2305 q 12.5,-0.7813 20.4101,-8.1055 9.961,-9.082 9.961,-26.7578 z m 178.418,-16.4063 q 0,34.4727 -17.7735,58.3008 -18.6523,24.9024 -47.7539,24.9024 -29.9805,0 -48.5351,-25.0977 -17.4805,-23.6328 -17.4805,-58.1055 0,-36.8164 19.043,-57.8125 17.9687,-19.7265 46.9726,-19.7265 28.5156,0 46.4844,19.8242 19.043,21.0937 19.043,57.7148 z m -46.9727,17.1875 q 0,-27.1484 -18.3594,-27.1484 -17.8711,0 -17.8711,27.3438 0,10.9375 4.6875,20.4101 5.2735,10.6445 12.9883,10.6445 7.5195,0 13.2813,-10.8398 5.2734,-9.8633 5.2734,-20.4102 z m 173.6328,-88.9648 -2.832,61.4258 q -3.8086,-0.586 -12.2071,-1.4649 -5.1757,-0.2929 -16.7968,-0.5859 -0.586,5.7617 -2.0508,27.832 -1.0742,21.3867 -3.5156,62.793 h -47.2657 q -0.7812,-19.7266 -2.9296,-62.0117 -0.9766,-14.6485 -2.0508,-28.6133 l -15.4297,0.5859 -13.9649,1.4649 -2.4414,-61.4258 z m 148.4375,0 -4.1992,61.8164 q -3.6133,-0.5859 -15.625,-2.0508 -8.2031,-0.7812 -17.9688,-0.9765 l -1.4648,18.6523 q 10.7422,0.293 35.0586,-0.4883 -1.0742,3.6133 -3.418,13.4766 -1.3672,5.957 -2.4414,13.7695 -2.832,-0.6836 -14.1601,-1.7578 -5.2735,-0.293 -15.625,-0.1953 l -0.9766,21.7773 q 7.3242,-0.098 26.9531,-1.2695 3.711,-0.293 12.2071,-2.3437 -0.7813,3.0273 -3.6133,14.5507 -1.3672,5.9571 -3.3203,15.0391 h -87.4024 l -2.832,-76.5625 q -0.7813,-26.2695 -3.8086,-73.4375 z m 128.418,0 q -1.3672,19.7266 -3.8086,68.8477 -1.4649,36.1328 -2.4414,83.1054 -12.793,-10.0586 -38.9649,-29.9804 -11.3281,-7.9102 -33.789,-23.7305 l -0.9766,51.7578 h -31.4453 q -0.7813,-19.8242 -3.6133,-74.8047 -2.4414,-44.5312 -4.9805,-75.1953 h 49.0235 l 36.3281,34.375 q 0,-11.8164 -0.3906,-18.5547 -0.293,-5.957 -1.1719,-15.8203 z m 133.789,0 q -8.1054,24.0234 -25.9765,78.418 -8.2031,25.5859 -21.1914,71.582 h -33.9844 q -6.543,-22.2656 -21.875,-72.7539 -8.6914,-27.9297 -25.7813,-77.2461 h 69.043 q 0.9766,9.2773 4.5899,30.1758 2.4414,11.1328 7.6171,30.664 2.7344,-9.4726 8.0079,-30.8593 2.4414,-11.5235 5.5664,-29.9805 z m 72.7539,0 -3.8085,79.7852 q -1.0743,25.7812 -2.5391,70.2148 h -54.7852 l -6.6406,-150 z m 139.1602,56.1523 q 0,17.9688 -10.0586,31.836 -8.8867,12.1094 -22.2656,17.3828 2.832,4.3945 13.9648,18.457 5.5664,6.4453 16.9922,16.9922 -4.5898,1.6602 -20.2148,8.3984 -10.9375,4.9805 -20.6055,9.7657 -2.832,-3.5157 -12.5977,-18.1641 -4.4921,-7.4219 -13.1835,-25 h -0.1954 l -0.9765,34.1797 h -54.9805 q -1.0742,-21.2891 -3.0273,-70.2148 -0.8789,-28.8086 -4.0039,-79.7852 26.8554,-2.832 49.0234,-2.832 82.1289,0 82.1289,58.9843 z m -44.3359,21.0938 q 0,-9.2774 -7.8125,-13.2813 -5.7618,-2.9296 -14.4532,-2.539 l -0.5859,33.3984 q 8.1055,0 14.4531,-3.6133 8.3985,-4.6875 8.3985,-13.9648 z m 180.957,-5.4688 q 0,34.4727 -17.7734,58.3008 -18.6524,24.9024 -47.7539,24.9024 -29.9805,0 -48.5352,-25.0977 -17.4805,-23.6328 -17.4805,-58.1055 0,-36.8164 19.043,-57.8125 17.9687,-19.7265 46.9727,-19.7265 28.5156,0 46.4843,19.8242 19.043,21.0937 19.043,57.7148 z m -46.9727,17.1875 q 0,-27.1484 -18.3593,-27.1484 -17.8711,0 -17.8711,27.3438 0,10.9375 4.6875,20.4101 5.2734,10.6445 12.9883,10.6445 7.5195,0 13.2812,-10.8398 5.2734,-9.8633 5.2734,-20.4102 z m 174.4141,-88.9648 q -1.3672,19.7266 -3.8086,68.8477 -1.4648,36.1328 -2.4414,83.1054 -12.793,-10.0586 -38.9648,-29.9804 -11.3282,-7.9102 -33.7891,-23.7305 l -0.9766,51.7578 h -31.4453 q -0.7812,-19.8242 -3.6133,-74.8047 -2.4414,-44.5312 -4.9804,-75.1953 h 49.0234 l 36.3281,34.375 q 0,-11.8164 -0.3906,-18.5547 -0.293,-5.957 -1.1719,-15.8203 z m 165.8203,0 q -1.3672,20.5078 -4.0039,74.8047 -1.3672,33.3984 -2.0508,75.1953 h -35.3515 l -0.9766,-45.9961 -34.4727,49.6094 -37.207,-49.2188 -0.9765,45.6055 h -35.1563 q -0.6836,-22.3633 -2.6367,-75.5859 -1.3672,-30.6641 -4.9805,-74.4141 h 55.957 q 2.9297,7.1289 10.0586,23.0469 5.4688,11.3281 14.9414,26.7578 4.1993,-6.6406 15.4297,-27.4414 4.0039,-7.7149 10.2539,-22.3633 z m 110.6445,0 -4.1992,61.8164 q -3.6133,-0.5859 -15.625,-2.0508 -8.2031,-0.7812 -17.9687,-0.9765 l -1.4649,18.6523 q 10.7422,0.293 35.0586,-0.4883 -1.0742,3.6133 -3.4179,13.4766 -1.3672,5.957 -2.4414,13.7695 -2.8321,-0.6836 -14.1602,-1.7578 -5.2734,-0.293 -15.625,-0.1953 l -0.9766,21.7773 q 7.3243,-0.098 26.9532,-1.2695 3.7109,-0.293 12.207,-2.3437 -0.7813,3.0273 -3.6133,14.5507 -1.3672,5.9571 -3.3203,15.0391 h -87.4023 l -2.8321,-76.5625 q -0.7812,-26.2695 -3.8086,-73.4375 z m 128.418,0 q -1.3672,19.7266 -3.8086,68.8477 -1.4648,36.1328 -2.4414,83.1054 -12.793,-10.0586 -38.9648,-29.9804 -11.3282,-7.9102 -33.7891,-23.7305 l -0.9766,51.7578 h -31.4453 q -0.7812,-19.8242 -3.6132,-74.8047 -2.4415,-44.5312 -4.9805,-75.1953 h 49.0234 l 36.3281,34.375 q 0,-11.8164 -0.3906,-18.5547 -0.2929,-5.957 -1.1719,-15.8203 z m 127.2461,0 -2.832,61.4258 q -3.8086,-0.586 -12.2071,-1.4649 -5.1757,-0.2929 -16.7968,-0.5859 -0.586,5.7617 -2.0508,27.832 -1.0742,21.3867 -3.5156,62.793 h -47.2657 q -0.7812,-19.7266 -2.9296,-62.0117 -0.9766,-14.6485 -2.0508,-28.6133 l -15.4297,0.5859 -13.9649,1.4649 -2.4414,-61.4258 z"
       id="path1" /><path
       d="m 1055.4707,1699.1389 q 0,24.0235 -8.7891,43.457 -9.375,20.8008 -26.1718,29.1993 3.6132,3.6132 10.1562,9.5703 8.9844,6.8359 15.8203,10.3515 -3.6133,3.6133 -12.0117,10.6446 -4.7851,3.3203 -13.1836,7.4218 -6.9336,-5.5664 -11.4258,-11.2304 -5.2734,-6.836 -7.5195,-11.8164 2.1484,-1.9532 6.543,-8.3985 -9.47268,4.0039 -18.94534,4.0039 -29.98047,0 -48.53516,-25.1953 -17.48047,-23.6328 -17.48047,-58.0078 0,-37.0117 19.04297,-57.9101 17.8711,-19.6289 46.97266,-19.6289 28.51564,0 46.48434,19.8242 19.043,20.9961 19.043,57.7148 z m -46.9727,17.5781 q 0,-27.1484 -17.9687,-27.1484 -9.66797,0 -14.45313,8.1055 -4.19922,7.1289 -3.80859,19.2383 0.48828,11.2304 4.88281,20.4101 5.17578,10.6445 12.79297,10.6445 7.51953,0 13.28124,-10.8398 5.2734,-9.8633 5.2734,-20.4102 z m 186.6211,-88.9648 -2.2461,63.1836 q -0.9765,27.0508 -0.9765,81.8359 -25,8.9844 -50.9766,8.9844 -32.0312,0 -48.7304,-12.793 -14.1602,-10.8398 -20.0196,-33.789 -3.4179,-13.1836 -6.4453,-48.2422 -2.9297,-32.4219 -3.6133,-59.1797 h 62.9883 q -0.4883,12.8906 -1.1719,41.9922 -0.2929,16.2109 0.1953,45.9961 0.098,22.6562 3.9063,30.5664 4.0039,8.3984 16.0156,8.3984 3.418,0 7.6172,-1.9531 0,-20.1172 -1.1719,-63.9648 -0.9765,-21.9727 -3.6132,-61.0352 z m 110.6446,0 -4.1992,61.8164 q -3.6133,-0.5859 -15.625,-2.0508 -8.2032,-0.7812 -17.9688,-0.9765 l -1.4648,18.6523 q 10.7421,0.293 35.0586,-0.4883 -1.0743,3.6133 -3.418,13.4766 -1.3672,5.957 -2.4414,13.7695 -2.8321,-0.6836 -14.1602,-1.7578 -5.2734,-0.293 -15.625,-0.1953 l -0.9765,21.7773 q 7.3242,-0.098 26.9531,-1.2695 3.7109,-0.293 12.207,-2.3437 -0.7812,3.0273 -3.6133,14.5507 -1.3672,5.9571 -3.3203,15.0391 h -87.4023 l -2.8321,-76.5625 q -0.7812,-26.2695 -3.8085,-73.4375 z m 139.5508,56.1523 q 0,17.9688 -10.0586,31.836 -8.8868,12.1094 -22.2657,17.3828 2.8321,4.3945 13.9649,18.457 5.5664,6.4453 16.9922,16.9922 -4.5899,1.6602 -20.2149,8.3984 -10.9375,4.9805 -20.6054,9.7657 -2.8321,-3.5157 -12.5977,-18.1641 -4.4922,-7.4219 -13.1836,-25 h -0.1953 l -0.9766,34.1797 h -54.9804 q -1.0743,-21.2891 -3.0274,-70.2148 -0.8789,-28.8086 -4.0039,-79.7852 26.8555,-2.832 49.0234,-2.832 82.129,0 82.129,58.9843 z m -44.336,21.0938 q 0,-9.2774 -7.8125,-13.2813 -5.7617,-2.9296 -14.4531,-2.539 l -0.5859,33.3984 q 8.1054,0 14.4531,-3.6133 8.3984,-4.6875 8.3984,-13.9648 z m 185.1563,-77.2461 -18.3594,33.9844 q -7.4219,13.9648 -20.0195,39.0625 -1.1719,13.6718 -3.0274,38.7695 -0.5859,13.3789 -1.9531,38.1836 h -50 q -0.3906,-12.1094 -1.7578,-38.7695 -0.7813,-10.0586 -3.6133,-38.1836 -5.0781,-10.4492 -16.9922,-33.8867 -7.7148,-14.2579 -22.4609,-39.1602 h 72.0703 q 1.7578,6.3477 6.1523,20.0195 l 9.375,26.3672 q 3.711,-8.9844 10.0586,-26.5625 2.1485,-6.9336 5.5664,-19.8242 z m 176.2695,71.7773 q 0,34.4727 -17.7734,58.3008 -18.6524,24.9024 -47.7539,24.9024 -29.9805,0 -48.5352,-25.0977 -17.4805,-23.6328 -17.4805,-58.1055 0,-36.8164 19.043,-57.8125 17.9687,-19.7265 46.9727,-19.7265 28.5156,0 46.4843,19.8242 19.043,21.0937 19.043,57.7148 z m -46.9727,17.1875 q 0,-27.1484 -18.3593,-27.1484 -17.8711,0 -17.8711,27.3438 0,10.9375 4.6875,20.4101 5.2734,10.6445 12.9883,10.6445 7.5195,0 13.2812,-10.8398 5.2734,-9.8633 5.2734,-20.4102 z m 185.5469,-32.8125 q 0,17.9688 -10.0586,31.836 -8.8867,12.1094 -22.2656,17.3828 2.832,4.3945 13.9648,18.457 5.5664,6.4453 16.9922,16.9922 -4.5898,1.6602 -20.2148,8.3984 -10.9375,4.9805 -20.6055,9.7657 -2.832,-3.5157 -12.5976,-18.1641 -4.4922,-7.4219 -13.1836,-25 h -0.1953 l -0.9766,34.1797 h -54.9805 q -1.0742,-21.2891 -3.0273,-70.2148 -0.8789,-28.8086 -4.0039,-79.7852 26.8554,-2.832 49.0234,-2.832 82.1289,0 82.1289,58.9843 z m -44.3359,21.0938 q 0,-9.2774 -7.8125,-13.2813 -5.7617,-2.9296 -14.4531,-2.539 l -0.586,33.3984 q 8.1055,0 14.4531,-3.6133 8.3985,-4.6875 8.3985,-13.9648 z m 160.3515,-15.8203 q -5.3711,-1.6602 -13.7695,-1.6602 -15.625,0 -25.3906,8.2031 -11.0352,9.1797 -11.0352,26.4649 0,13.4766 8.6914,22.168 8.7891,8.5937 22.9493,8.5937 9.6679,0 18.3593,-4.7851 -0.9765,4.0039 -3.3203,14.746 -1.3672,7.129 -2.6367,14.8438 -10.9375,4.1992 -28.0273,4.1992 -30.9571,0 -52.9297,-20.8008 -23.8282,-22.6562 -23.8282,-58.9843 0,-33.5938 20.5079,-54.2969 21.875,-22.0703 60.4492,-22.0703 18.5547,0 26.8554,2.1484 z m 156.0547,-61.4258 q -1.6601,24.0234 -4.3945,78.2227 -0.7813,25.7812 -2.7344,71.7773 h -49.8047 l -1.0742,-32.8125 q -1.7578,0.5859 -7.1289,2.832 -6.3476,2.7344 -8.9844,4.3946 l -5.0781,-12.0118 q -1.5625,-3.9062 -5.1758,-11.0351 l -0.9765,48.6328 h -54.9805 l -2.832,-71.7773 q -0.8789,-28.0274 -4.3946,-78.2227 h 68.5547 l -4.5898,92.3828 q 7.1289,0.6836 13.6719,0.3906 4.1992,-0.098 11.3281,-0.7812 l -4.9805,-91.9922 z m 110.6446,0 -4.1993,61.8164 q -3.6132,-0.5859 -15.625,-2.0508 -8.2031,-0.7812 -17.9687,-0.9765 l -1.4649,18.6523 q 10.7422,0.293 35.0586,-0.4883 -1.0742,3.6133 -3.4179,13.4766 -1.3672,5.957 -2.4414,13.7695 -2.8321,-0.6836 -14.1602,-1.7578 -5.2734,-0.293 -15.625,-0.1953 l -0.9766,21.7773 q 7.3243,-0.098 26.9532,-1.2695 3.7109,-0.293 12.207,-2.3437 -0.7812,3.0273 -3.6133,14.5507 -1.3672,5.9571 -3.3203,15.0391 h -87.4023 l -2.8321,-76.5625 q -0.7812,-26.2695 -3.8086,-73.4375 z m 101.3671,61.4258 q -7.2265,-1.6602 -10.9375,-1.6602 -4.5898,0 -8.3984,3.125 -4.5898,3.8086 -4.5898,9.8633 0,4.6875 8.3984,18.0664 8.3984,13.3789 8.3984,24.6094 0,16.3086 -12.4023,26.7578 -11.8164,10.0586 -29.1992,10.0586 -16.0156,0 -23.6328,-2.2461 -0.8789,-4.4922 -3.0274,-14.6484 -1.3672,-5.4688 -3.8086,-14.5508 10.7422,2.6367 14.4532,2.6367 14.5507,0 14.5507,-11.0352 0,-8.0078 -5.8593,-14.3554 -9.5704,-8.3985 -19.1407,-16.8946 -18.5547,-16.4062 -18.5547,-38.9648 0,-23.5352 17.5782,-35.6445 15.332,-10.5469 40.8203,-10.5469 14.4531,0 32.4219,4.1992 z m 126.8555,-61.4258 -2.832,61.4258 q -3.8086,-0.586 -12.207,-1.4649 -5.1758,-0.2929 -16.7969,-0.5859 -0.586,5.7617 -2.0508,27.832 -1.0742,21.3867 -3.5156,62.793 h -47.2657 q -0.7812,-19.7266 -2.9296,-62.0117 -0.9766,-14.6485 -2.0508,-28.6133 l -15.4297,0.5859 -13.9649,1.4649 -2.4414,-61.4258 z m 136.9141,56.1523 q 0,17.9688 -10.0586,31.836 -8.8867,12.1094 -22.2656,17.3828 2.832,4.3945 13.9648,18.457 5.5664,6.4453 16.9922,16.9922 -4.5899,1.6602 -20.2149,8.3984 -10.9375,4.9805 -20.6054,9.7657 -2.8321,-3.5157 -12.5977,-18.1641 -4.4922,-7.4219 -13.1836,-25 h -0.1953 l -0.9765,34.1797 h -54.9805 q -1.0742,-21.2891 -3.0274,-70.2148 -0.8789,-28.8086 -4.0039,-79.7852 26.8555,-2.832 49.0235,-2.832 82.1289,0 82.1289,58.9843 z m -44.336,21.0938 q 0,-9.2774 -7.8125,-13.2813 -5.7617,-2.9296 -14.4531,-2.539 l -0.5859,33.3984 q 8.1054,0 14.4531,-3.6133 8.3984,-4.6875 8.3984,-13.9648 z m 169.4336,72.7539 h -53.4179 l -3.6133,-12.9883 q -2.2461,0.8789 -11.2305,5.957 -5.7617,3.711 -12.793,9.8633 l -5.5664,-11.8164 q -1.6601,-3.5156 -4.7851,-9.8633 l -5.2735,18.8477 h -28.3203 q 6.25,-24.1211 19.336,-79.5898 8.0078,-37.1094 13.3789,-70.4102 h 58.6914 q 2.7344,15.332 14.9414,71.3867 6.7383,29.2969 18.6523,78.6133 z m -61.6211,-32.0313 q -1.6601,-5.1757 -5.8593,-16.7968 -2.5391,-6.4453 -7.7149,-17.7735 -2.2461,5.6641 -7.0312,18.5547 -2.6367,7.4219 -6.25,20.2149 2.9297,0 13.2812,-1.1719 6.25,-0.8789 13.5742,-3.0274 z m 184.4727,-117.9687 -2.832,61.4258 q -3.8086,-0.586 -12.2071,-1.4649 -5.1757,-0.2929 -16.7968,-0.5859 -0.586,5.7617 -2.0508,27.832 -1.0742,21.3867 -3.5156,62.793 h -47.2657 q -0.7812,-19.7266 -2.9297,-62.0117 -0.9765,-14.6485 -2.0507,-28.6133 l -15.4297,0.5859 -13.9649,1.4649 -2.4414,-61.4258 z m 136.7187,71.7773 q 0,34.4727 -17.7734,58.3008 -18.6523,24.9024 -47.7539,24.9024 -29.9805,0 -48.5352,-25.0977 -17.4804,-23.6328 -17.4804,-58.1055 0,-36.8164 19.0429,-57.8125 17.9688,-19.7265 46.9727,-19.7265 28.5156,0 46.4844,19.8242 19.0429,21.0937 19.0429,57.7148 z m -46.9726,17.1875 q 0,-27.1484 -18.3594,-27.1484 -17.8711,0 -17.8711,27.3438 0,10.9375 4.6875,20.4101 5.2735,10.6445 12.9883,10.6445 7.5195,0 13.2813,-10.8398 5.2734,-9.8633 5.2734,-20.4102 z m 185.5469,-32.8125 q 0,17.9688 -10.0586,31.836 -8.8867,12.1094 -22.2657,17.3828 2.8321,4.3945 13.9649,18.457 5.5664,6.4453 16.9922,16.9922 -4.5899,1.6602 -20.2149,8.3984 -10.9375,4.9805 -20.6054,9.7657 -2.8321,-3.5157 -12.5977,-18.1641 -4.4922,-7.4219 -13.1836,-25 h -0.1953 l -0.9766,34.1797 h -54.9804 q -1.0742,-21.2891 -3.0274,-70.2148 -0.8789,-28.8086 -4.0039,-79.7852 26.8555,-2.832 49.0235,-2.832 82.1289,0 82.1289,58.9843 z m -44.336,21.0938 q 0,-9.2774 -7.8125,-13.2813 -5.7617,-2.9296 -14.4531,-2.539 l -0.5859,33.3984 q 8.1054,0 14.4531,-3.6133 8.3984,-4.6875 8.3984,-13.9648 z"
       id="path13" /></g></svg>
